# xmcd
#
# Track frame offsets: 
#        150
#        20544
#        39716
#        55536
#        72765
#        99291
#        123587
#        148476
#        176145
#        196958
#        213211
#        248366
#        266683
#        293805
#
# Disc length: 4238 seconds
#
# Revision: 0
# Processed by: cddbd v1.5.2PL0 Copyright (c) Steve Scherf et al.
# Submitted via: ExactAudioCopy v1.0b4
#
DISCID=cd108c0e
DTITLE=Adams Robinson Project - Supervision Needed
DYEAR=2015
DGENRE=Blues
TTITLE0=Supervision Needed
TTITLE1=Live With the Choices
TTITLE2=Keep the Train Rolling
TTITLE3=Funkhemist
TTITLE4=It's All Over Now
TTITLE5=Movin' On
TTITLE6=Two Ton Tessie
TTITLE7=Guitar Jamm (In the Courtyard of the Crimson King)
TTITLE8=Daphne's Mood
TTITLE9=Frostop
TTITLE10=Tjader
TTITLE11=Boom Ta Chooka Ta Pow
TTITLE12=Chemo Sabe Blues
TTITLE13=Third Presbyterian
EXTD=
EXTT0=
EXTT1=
EXTT2=
EXTT3=
EXTT4=
EXTT5=
EXTT6=
EXTT7=
EXTT8=
EXTT9=
EXTT10=
EXTT11=
EXTT12=
EXTT13=
PLAYORDER=
